<svg width="238" height="54" viewBox="0 0 238 54" fill="none" xmlns="http://www.w3.org/2000/svg">
<path fill-rule="evenodd" clip-rule="evenodd" d="M23.2109 -0.00366211H0.000948727V9.88257H5.15872V5.15437H18.0532V11.8846L5.15872 19.8673V17.1898H0.000948727V29.1267L23.2109 14.7579V-0.00366211Z" fill="black"/>
<path fill-rule="evenodd" clip-rule="evenodd" d="M23.2109 16.4736L18.0532 19.6743V25.6419L5.15872 33.6246V27.6576L0.000948727 30.8486V42.884L23.2109 28.5152V16.4736Z" fill="black"/>
<path fill-rule="evenodd" clip-rule="evenodd" d="M0.00512695 53.2988V44.6018L5.1629 41.4116V53.2988H0.00512695Z" fill="black"/>
<path fill-rule="evenodd" clip-rule="evenodd" d="M12.9995 36.5577L17.3854 33.8425L23.2134 43.5563V53.2968H18.0556V44.985L12.9995 36.5577Z" fill="black"/>
<path d="M220.444 34.4863V16.9316H234.366C235.032 16.9316 235.634 17.0942 236.17 17.4193C236.723 17.7444 237.162 18.1832 237.487 18.7359C237.828 19.2723 237.999 19.8737 237.999 20.5401V30.8778C237.999 31.528 237.828 32.1294 237.487 32.6821C237.162 33.2347 236.723 33.6736 236.17 33.9987C235.634 34.3237 235.032 34.4863 234.366 34.4863H220.444ZM224.199 30.6828H234.171V20.7351H224.199V30.6828Z" fill="black"/>
<path d="M200.11 34.4863V16.9316H204.011L213.837 28.6347V16.9316H217.665V34.4863H213.764L203.889 22.7344V34.4863H200.11Z" fill="black"/>
<path d="M183.479 34.4863C182.828 34.4863 182.227 34.3237 181.674 33.9987C181.122 33.6736 180.683 33.2347 180.358 32.6821C180.033 32.1294 179.87 31.528 179.87 30.8778V20.5401C179.87 19.8737 180.033 19.2723 180.358 18.7359C180.683 18.1832 181.122 17.7444 181.674 17.4193C182.227 17.0942 182.828 16.9316 183.479 16.9316H193.816C194.466 16.9316 195.06 17.0942 195.596 17.4193C196.149 17.7444 196.588 18.1832 196.913 18.7359C197.254 19.2723 197.425 19.8737 197.425 20.5401V30.8778C197.425 31.528 197.254 32.1294 196.913 32.6821C196.588 33.2347 196.149 33.6736 195.596 33.9987C195.06 34.3237 194.466 34.4863 193.816 34.4863H183.479ZM183.649 30.6828H193.597V20.7351H183.649V30.6828Z" fill="black"/>
<path d="M157.298 34.4863V16.9316H161.199L167.148 24.0266L173.073 16.9316H176.998V34.4863H173.195V22.71L167.148 29.927L161.077 22.7344V34.4863H157.298Z" fill="black"/>
<path d="M137.489 34.4863V16.9316H151.411C152.077 16.9316 152.679 17.0942 153.215 17.4193C153.768 17.7444 154.207 18.1832 154.532 18.7359C154.873 19.2723 155.044 19.8737 155.044 20.5401V30.8778C155.044 31.528 154.873 32.1294 154.532 32.6821C154.207 33.2347 153.768 33.6736 153.215 33.9987C152.679 34.3237 152.077 34.4863 151.411 34.4863H137.489ZM141.244 30.6828H151.216V20.7351H141.244V30.6828Z" fill="black"/>
<path d="M118.823 34.4863V16.9316H135.036V20.7351H122.65V23.8072H132.622V27.6107H122.65V30.6828H135.036V34.4863H118.823Z" fill="black"/>
<path d="M112.284 34.4878L107.189 28.4168H112.138L116.185 33.1956V34.4878H112.284ZM98.655 34.4878V16.9575H112.577C113.243 16.9575 113.845 17.1201 114.381 17.4451C114.934 17.7702 115.373 18.2091 115.698 18.7617C116.039 19.3144 116.21 19.9158 116.21 20.566V25.1009C116.21 25.7511 116.039 26.3525 115.698 26.9052C115.373 27.4578 114.934 27.8967 114.381 28.2218C113.845 28.5468 113.243 28.7094 112.577 28.7094L102.434 28.7338V34.4878H98.655ZM102.434 24.9059H112.382V20.7366H102.434V24.9059Z" fill="black"/>
<path d="M70.5879 34.4863V16.9316H83.8514C84.5016 16.9316 85.0949 17.0942 85.6313 17.4193C86.1839 17.7444 86.6228 18.1832 86.9478 18.7359C87.2892 19.2723 87.4599 19.8737 87.4599 20.5401V23.8316C87.4599 24.0429 87.4436 24.2461 87.4111 24.4411C87.3948 24.6199 87.3542 24.7906 87.2892 24.9531C87.533 25.262 87.7362 25.6196 87.8987 26.0259C88.0613 26.4323 88.1425 26.8386 88.1425 27.245V30.8778C88.1425 31.528 87.9719 32.1294 87.6305 32.6821C87.3054 33.2347 86.8666 33.6736 86.3139 33.9987C85.7775 34.3237 85.1761 34.4863 84.5097 34.4863H70.5879ZM74.367 30.6828H84.3147V27.4644H74.367V30.6828ZM74.367 23.6609H83.632V20.7351H74.367V23.6609Z" fill="black"/>
<path d="M53.8782 34.4863C53.2281 34.4863 52.6266 34.3237 52.074 33.9987C51.5214 33.6736 51.0825 33.2347 50.7574 32.6821C50.4323 32.1294 50.2698 31.528 50.2698 30.8778V20.5401C50.2698 19.8737 50.4323 19.2723 50.7574 18.7359C51.0825 18.1832 51.5214 17.7444 52.074 17.4193C52.6266 17.0942 53.2281 16.9316 53.8782 16.9316H64.216C64.8661 16.9316 65.4594 17.0942 65.9958 17.4193C66.5485 17.7444 66.9873 18.1832 67.3124 18.7359C67.6538 19.2723 67.8244 19.8737 67.8244 20.5401V30.8778C67.8244 31.528 67.6538 32.1294 67.3124 32.6821C66.9873 33.2347 66.5485 33.6736 65.9958 33.9987C65.4594 34.3237 64.8661 34.4863 64.216 34.4863H53.8782ZM54.0489 30.6828H63.9965V20.7351H54.0489V30.6828Z" fill="black"/>
<path d="M30.1074 34.4863V16.9316H43.3709C44.0211 16.9316 44.6144 17.0942 45.1508 17.4193C45.7034 17.7444 46.1423 18.1832 46.4674 18.7359C46.8087 19.2723 46.9794 19.8737 46.9794 20.5401V23.8316C46.9794 24.0429 46.9631 24.2461 46.9306 24.4411C46.9144 24.6199 46.8737 24.7906 46.8087 24.9531C47.0525 25.262 47.2557 25.6196 47.4183 26.0259C47.5808 26.4323 47.6621 26.8386 47.6621 27.245V30.8778C47.6621 31.528 47.4914 32.1294 47.1501 32.6821C46.825 33.2347 46.3861 33.6736 45.8335 33.9987C45.2971 34.3237 44.6957 34.4863 44.0292 34.4863H30.1074ZM33.8865 30.6828H43.8342V27.4644H33.8865V30.6828ZM33.8865 23.6609H43.1515V20.7351H33.8865V23.6609Z" fill="black"/>
<path d="M223.961 53.3495V39.5186H226.093L236.236 51.5822V39.5186H237.792V53.3495H235.66L225.517 41.2858V53.3495H223.961Z" fill="black"/>
<path d="M208.4 53.3495C207.977 53.3495 207.586 53.247 207.228 53.0421C206.882 52.8372 206.607 52.5619 206.402 52.2161C206.197 51.8575 206.094 51.4669 206.094 51.0443V41.8237C206.094 41.4011 206.197 41.0169 206.402 40.6711C206.607 40.3126 206.882 40.0308 207.228 39.8259C207.586 39.621 207.977 39.5186 208.4 39.5186H217.62C218.043 39.5186 218.427 39.621 218.773 39.8259C219.131 40.0308 219.413 40.3126 219.618 40.6711C219.823 41.0169 219.925 41.4011 219.925 41.8237V51.0443C219.925 51.4669 219.823 51.8575 219.618 52.2161C219.413 52.5619 219.131 52.8372 218.773 53.0421C218.427 53.247 218.043 53.3495 217.62 53.3495H208.4ZM208.4 51.7935H217.62C217.825 51.7935 217.998 51.7231 218.139 51.5822C218.293 51.4285 218.369 51.2492 218.369 51.0443V41.8237C218.369 41.6188 218.293 41.4459 218.139 41.305C217.998 41.1514 217.825 41.0745 217.62 41.0745H208.4C208.195 41.0745 208.015 41.1514 207.862 41.305C207.721 41.4459 207.65 41.6188 207.65 41.8237V51.0443C207.65 51.2492 207.721 51.4285 207.862 51.5822C208.015 51.7231 208.195 51.7935 208.4 51.7935Z" fill="black"/>
<path d="M200.298 53.3495V39.5186H201.873V53.3495H200.298Z" fill="black"/>
<path d="M184.596 53.3495C184.174 53.3495 183.783 53.247 183.425 53.0421C183.079 52.8372 182.804 52.5619 182.599 52.2161C182.394 51.8575 182.291 51.4669 182.291 51.0443V50.5065H183.847V51.0443C183.847 51.2492 183.918 51.4285 184.059 51.5822C184.212 51.7231 184.392 51.7935 184.596 51.7935H193.817C194.022 51.7935 194.195 51.7231 194.336 51.5822C194.489 51.4285 194.566 51.2492 194.566 51.0443V47.9516C194.566 47.7467 194.489 47.5738 194.336 47.4329C194.195 47.2921 194.022 47.2216 193.817 47.2216H184.596C184.174 47.2216 183.783 47.1192 183.425 46.9143C183.079 46.6966 182.804 46.4148 182.599 46.069C182.394 45.7233 182.291 45.3391 182.291 44.9165V41.8237C182.291 41.4011 182.394 41.0169 182.599 40.6711C182.804 40.3126 183.079 40.0308 183.425 39.8259C183.783 39.621 184.174 39.5186 184.596 39.5186H193.817C194.24 39.5186 194.624 39.621 194.97 39.8259C195.328 40.0308 195.61 40.3126 195.815 40.6711C196.02 41.0169 196.122 41.4011 196.122 41.8237V42.3616H194.566V41.8237C194.566 41.6188 194.489 41.4459 194.336 41.305C194.195 41.1514 194.022 41.0745 193.817 41.0745H184.596C184.392 41.0745 184.212 41.1514 184.059 41.305C183.918 41.4459 183.847 41.6188 183.847 41.8237V44.9165C183.847 45.1214 183.918 45.2942 184.059 45.4351C184.212 45.576 184.392 45.6464 184.596 45.6464H193.817C194.24 45.6464 194.624 45.7553 194.97 45.973C195.328 46.1779 195.61 46.4532 195.815 46.799C196.02 47.1448 196.122 47.529 196.122 47.9516V51.0443C196.122 51.4669 196.02 51.8575 195.815 52.2161C195.61 52.5619 195.328 52.8372 194.97 53.0421C194.624 53.247 194.24 53.3495 193.817 53.3495H184.596Z" fill="black"/>
<path d="M176.552 53.3495V39.5186H178.127V53.3495H176.552Z" fill="black"/>
<path d="M159.485 53.3506V39.5005H161.041V51.7947H173.316V53.3506H159.485Z" fill="black"/>
<path d="M142.595 53.3506V39.5005H144.151V51.7947H156.426V53.3506H142.595Z" fill="black"/>
<path d="M127.018 53.3495C126.595 53.3495 126.205 53.247 125.846 53.0421C125.5 52.8372 125.225 52.5619 125.02 52.2161C124.815 51.8575 124.713 51.4669 124.713 51.0443V41.8237C124.713 41.4011 124.815 41.0169 125.02 40.6711C125.225 40.3126 125.5 40.0308 125.846 39.8259C126.205 39.621 126.595 39.5186 127.018 39.5186H136.239C136.661 39.5186 137.045 39.621 137.391 39.8259C137.75 40.0308 138.032 40.3126 138.236 40.6711C138.441 41.0169 138.544 41.4011 138.544 41.8237V51.0443C138.544 51.4669 138.441 51.8575 138.236 52.2161C138.032 52.5619 137.75 52.8372 137.391 53.0421C137.045 53.247 136.661 53.3495 136.239 53.3495H127.018ZM127.018 51.7935H136.239C136.444 51.7935 136.616 51.7231 136.757 51.5822C136.911 51.4285 136.988 51.2492 136.988 51.0443V41.8237C136.988 41.6188 136.911 41.4459 136.757 41.305C136.616 41.1514 136.444 41.0745 136.239 41.0745H127.018C126.813 41.0745 126.634 41.1514 126.48 41.305C126.339 41.4459 126.269 41.6188 126.269 41.8237V51.0443C126.269 51.2492 126.339 51.4285 126.48 51.5822C126.634 51.7231 126.813 51.7935 127.018 51.7935Z" fill="black"/>
<path d="M109.333 53.3495C108.911 53.3495 108.52 53.247 108.161 53.0421C107.816 52.8372 107.54 52.5619 107.335 52.2161C107.131 51.8575 107.028 51.4669 107.028 51.0443V41.8237C107.028 41.4011 107.131 41.0169 107.335 40.6711C107.54 40.3126 107.816 40.0308 108.161 39.8259C108.52 39.621 108.911 39.5186 109.333 39.5186H120.821V41.0745H109.333C109.128 41.0745 108.949 41.1514 108.795 41.305C108.654 41.4459 108.584 41.6188 108.584 41.8237V51.0443C108.584 51.2492 108.654 51.4285 108.795 51.5822C108.949 51.7231 109.128 51.7935 109.333 51.7935H120.821V53.3495H109.333Z" fill="black"/>
<path d="M84.3149 53.3495C83.8923 53.3495 83.5017 53.247 83.1431 53.0421C82.7974 52.8372 82.522 52.5619 82.3171 52.2161C82.1122 51.8575 82.0098 51.4669 82.0098 51.0443V41.8237C82.0098 41.4011 82.1122 41.0169 82.3171 40.6711C82.522 40.3126 82.7974 40.0308 83.1431 39.8259C83.5017 39.621 83.8923 39.5186 84.3149 39.5186H93.5355C93.9582 39.5186 94.3423 39.621 94.6881 39.8259C95.0467 40.0308 95.3284 40.3126 95.5333 40.6711C95.7382 41.0169 95.8407 41.4011 95.8407 41.8237V51.0443C95.8407 51.4669 95.7382 51.8575 95.5333 52.2161C95.3284 52.5619 95.0467 52.8372 94.6881 53.0421C94.3423 53.247 93.9582 53.3495 93.5355 53.3495H84.3149ZM84.3149 51.7935H93.5355C93.7404 51.7935 93.9133 51.7231 94.0542 51.5822C94.2079 51.4285 94.2847 51.2492 94.2847 51.0443V41.8237C94.2847 41.6188 94.2079 41.4459 94.0542 41.305C93.9133 41.1514 93.7404 41.0745 93.5355 41.0745H84.3149C84.11 41.0745 83.9307 41.1514 83.7771 41.305C83.6362 41.4459 83.5657 41.6188 83.5657 41.8237V51.0443C83.5657 51.2492 83.6362 51.4285 83.7771 51.5822C83.9307 51.7231 84.11 51.7935 84.3149 51.7935Z" fill="black"/>
<path d="M71.0069 53.3495V41.0745H64.8599V39.5186H78.6908V41.0745H72.5629V53.3495H71.0069Z" fill="black"/>
<path d="M49.9892 53.3495C49.5666 53.3495 49.176 53.247 48.8175 53.0421C48.4717 52.8372 48.1963 52.5619 47.9914 52.2161C47.7865 51.8575 47.6841 51.4669 47.6841 51.0443V39.5186H49.2401V51.0443C49.2401 51.2492 49.3105 51.4285 49.4514 51.5822C49.605 51.7231 49.7843 51.7935 49.9892 51.7935H59.2099C59.4148 51.7935 59.5876 51.7231 59.7285 51.5822C59.8822 51.4285 59.959 51.2492 59.959 51.0443V39.5186H61.515V51.0443C61.515 51.4669 61.4126 51.8575 61.2077 52.2161C61.0028 52.5619 60.721 52.8372 60.3624 53.0421C60.0167 53.247 59.6325 53.3495 59.2099 53.3495H49.9892Z" fill="black"/>
<path d="M29.781 53.3495V41.8237C29.781 41.4011 29.8835 41.0169 30.0884 40.6711C30.2933 40.3126 30.5686 40.0308 30.9144 39.8259C31.273 39.621 31.6635 39.5186 32.0862 39.5186H41.3068C41.7294 39.5186 42.1136 39.621 42.4594 39.8259C42.8179 40.0308 43.0997 40.3126 43.3046 40.6711C43.5095 41.0169 43.6119 41.4011 43.6119 41.8237V53.3495H42.056V48.2974H31.337V53.3495H29.781ZM31.337 46.7414H42.056V41.8237C42.056 41.6188 41.9791 41.4459 41.8254 41.305C41.6846 41.1514 41.5117 41.0745 41.3068 41.0745H32.0862C31.8813 41.0745 31.702 41.1514 31.5483 41.305C31.4074 41.4459 31.337 41.6188 31.337 41.8237V46.7414Z" fill="black"/>
<path d="M235.848 11.8406C235.517 11.8406 235.216 11.7633 234.945 11.6089C234.679 11.4494 234.466 11.2376 234.305 10.9735C234.15 10.7095 234.072 10.4155 234.072 10.0916C234.072 9.6531 234.225 9.22457 234.531 8.80601L236.156 6.62354H236.803L235.193 8.73875L234.998 8.81349C235.068 8.7238 235.148 8.64906 235.238 8.58926C235.334 8.52448 235.441 8.47466 235.562 8.43978C235.682 8.4049 235.82 8.38746 235.976 8.38746C236.282 8.38746 236.56 8.4622 236.811 8.61168C237.062 8.75619 237.262 8.9555 237.413 9.20962C237.563 9.46375 237.639 9.75275 237.639 10.0766C237.639 10.4005 237.558 10.697 237.398 10.9661C237.237 11.2302 237.022 11.4419 236.751 11.6014C236.48 11.7608 236.179 11.8406 235.848 11.8406ZM235.855 11.3323C236.081 11.3323 236.287 11.2775 236.472 11.1679C236.663 11.0533 236.813 10.9013 236.924 10.7119C237.034 10.5176 237.089 10.3058 237.089 10.0766C237.089 9.84244 237.034 9.63067 236.924 9.44133C236.813 9.25198 236.663 9.10249 236.472 8.99287C236.287 8.87827 236.081 8.82096 235.855 8.82096C235.625 8.82096 235.414 8.87827 235.223 8.99287C235.038 9.10249 234.89 9.25198 234.779 9.44133C234.674 9.62569 234.621 9.83746 234.621 10.0766C234.621 10.3108 234.674 10.5251 234.779 10.7194C234.89 10.9088 235.038 11.0583 235.223 11.1679C235.414 11.2775 235.625 11.3323 235.855 11.3323Z" fill="black"/>
<path d="M230.147 11.8403C229.811 11.8403 229.513 11.7755 229.252 11.6459C228.996 11.5164 228.795 11.3395 228.65 11.1153C228.504 10.886 228.432 10.6269 228.432 10.3379C228.432 10.1087 228.477 9.89944 228.567 9.7101C228.662 9.51577 228.795 9.35133 228.966 9.2168C229.136 9.07728 229.335 8.9826 229.56 8.93277L229.62 9.08973C229.42 9.03492 229.249 8.94772 229.109 8.82813C228.968 8.70855 228.861 8.56654 228.785 8.4021C228.71 8.23269 228.672 8.0558 228.672 7.87143C228.672 7.60734 228.735 7.37813 228.861 7.1838C228.991 6.98449 229.167 6.82753 229.387 6.71292C229.613 6.59832 229.866 6.54102 230.147 6.54102C230.433 6.54102 230.686 6.59832 230.907 6.71292C231.133 6.82753 231.308 6.98449 231.434 7.1838C231.559 7.37813 231.622 7.60734 231.622 7.87143C231.622 8.0558 231.584 8.23269 231.509 8.4021C231.439 8.56654 231.334 8.70855 231.193 8.82813C231.053 8.94772 230.88 9.03492 230.674 9.08973L230.734 8.93277C230.965 8.9826 231.163 9.07728 231.329 9.2168C231.499 9.35133 231.63 9.51577 231.72 9.7101C231.815 9.89944 231.863 10.1087 231.863 10.3379C231.863 10.6269 231.79 10.886 231.645 11.1153C231.504 11.3395 231.303 11.5164 231.043 11.6459C230.787 11.7755 230.488 11.8403 230.147 11.8403ZM230.147 11.347C230.378 11.347 230.581 11.3021 230.757 11.2124C230.937 11.1227 231.078 10.9982 231.178 10.8387C231.278 10.6743 231.329 10.4899 231.329 10.2856C231.329 10.0763 231.278 9.89446 231.178 9.73999C231.078 9.58054 230.937 9.45597 230.757 9.36628C230.581 9.27161 230.378 9.22427 230.147 9.22427C229.921 9.22427 229.718 9.27161 229.538 9.36628C229.362 9.45597 229.222 9.58054 229.116 9.73999C229.016 9.89446 228.966 10.0763 228.966 10.2856C228.966 10.4899 229.016 10.6743 229.116 10.8387C229.222 10.9982 229.362 11.1227 229.538 11.2124C229.713 11.3021 229.916 11.347 230.147 11.347ZM230.147 8.79824C230.428 8.79824 230.656 8.71602 230.832 8.55159C231.013 8.38217 231.103 8.16542 231.103 7.90133C231.103 7.63724 231.013 7.42298 230.832 7.25854C230.656 7.09411 230.428 7.01189 230.147 7.01189C229.871 7.01189 229.643 7.09411 229.462 7.25854C229.282 7.42298 229.192 7.63724 229.192 7.90133C229.192 8.16542 229.282 8.38217 229.462 8.55159C229.643 8.71602 229.871 8.79824 230.147 8.79824Z" fill="black"/>
<path d="M223.632 11.7632L225.249 9.64048L225.437 9.56574C225.367 9.65543 225.287 9.73266 225.197 9.79744C225.106 9.86222 225.001 9.91204 224.881 9.94692C224.76 9.9818 224.622 9.99924 224.467 9.99924C224.161 9.99924 223.882 9.9245 223.632 9.77502C223.381 9.62553 223.178 9.42373 223.022 9.1696C222.872 8.91548 222.796 8.62897 222.796 8.31006C222.796 7.9812 222.877 7.68472 223.037 7.42063C223.203 7.15156 223.418 6.93979 223.684 6.78532C223.955 6.62587 224.256 6.54614 224.587 6.54614C224.923 6.54614 225.224 6.62338 225.49 6.77784C225.761 6.93231 225.974 7.14159 226.13 7.40568C226.29 7.66977 226.37 7.96376 226.37 8.28764C226.37 8.72613 226.217 9.15465 225.911 9.57321L224.279 11.7632H223.632ZM224.587 9.55826C224.818 9.55826 225.026 9.50345 225.212 9.39383C225.397 9.28421 225.543 9.13472 225.648 8.94537C225.758 8.75104 225.814 8.53927 225.814 8.31006C225.814 8.07089 225.758 7.85663 225.648 7.66728C225.543 7.47793 225.397 7.32845 225.212 7.21882C225.026 7.10422 224.818 7.04692 224.587 7.04692C224.356 7.04692 224.148 7.10422 223.963 7.21882C223.777 7.32845 223.629 7.48042 223.519 7.67475C223.408 7.8641 223.353 8.07587 223.353 8.31006C223.353 8.53927 223.408 8.74855 223.519 8.9379C223.629 9.12725 223.777 9.27922 223.963 9.39383C224.153 9.50345 224.361 9.55826 224.587 9.55826Z" fill="black"/>
<path d="M219.774 11.7658V6.62354H220.316V11.7658H219.774ZM218.683 7.10936V6.62354H220.24V7.10936H218.683Z" fill="black"/>
<path d="M209.221 11.7658V11.2576H210.741C211.147 11.2576 211.506 11.1704 211.817 10.996C212.128 10.8166 212.371 10.5724 212.547 10.2635C212.722 9.94957 212.81 9.59081 212.81 9.1872C212.81 8.78359 212.722 8.42732 212.547 8.11838C212.371 7.80945 212.128 7.56778 211.817 7.39338C211.506 7.214 211.147 7.12431 210.741 7.12431H209.236V6.62354H210.756C211.132 6.62354 211.478 6.68831 211.794 6.81787C212.115 6.94244 212.394 7.12182 212.629 7.35601C212.87 7.58522 213.056 7.85679 213.186 8.1707C213.317 8.47964 213.382 8.82096 213.382 9.19468C213.382 9.55842 213.317 9.89725 213.186 10.2112C213.056 10.5251 212.873 10.7991 212.637 11.0333C212.401 11.2626 212.123 11.4419 211.802 11.5715C211.486 11.701 211.142 11.7658 210.771 11.7658H209.221ZM208.882 11.7658V6.62354H209.432V11.7658H208.882Z" fill="black"/>
<path d="M204.06 11.7658V6.76555H204.617V11.7658H204.06ZM202.239 7.12431V6.62354H206.438V7.12431H202.239Z" fill="black"/>
<path d="M198.649 11.8379C198.248 11.8379 197.901 11.7632 197.611 11.6137C197.32 11.4592 197.064 11.245 196.843 10.9709L197.227 10.5972C197.402 10.8413 197.605 11.0232 197.836 11.1428C198.072 11.2624 198.35 11.3222 198.671 11.3222C199.003 11.3222 199.271 11.2474 199.477 11.098C199.682 10.9485 199.785 10.7417 199.785 10.4776C199.785 10.2733 199.737 10.1064 199.642 9.97682C199.547 9.84228 199.421 9.73515 199.266 9.65543C199.115 9.57072 198.947 9.49598 198.762 9.4312C198.576 9.36642 198.391 9.29916 198.205 9.2294C198.024 9.15465 197.856 9.06247 197.701 8.95285C197.545 8.84323 197.42 8.70371 197.325 8.53429C197.234 8.36488 197.189 8.14812 197.189 7.88403C197.189 7.60499 197.257 7.36582 197.392 7.1665C197.528 6.96719 197.713 6.81522 197.949 6.71058C198.185 6.60095 198.453 6.54614 198.754 6.54614C199.09 6.54614 199.389 6.61092 199.65 6.74047C199.915 6.87003 200.136 7.04443 200.312 7.26367L199.936 7.63738C199.775 7.44803 199.599 7.30353 199.409 7.20388C199.218 7.10422 198.995 7.05439 198.739 7.05439C198.438 7.05439 198.197 7.12415 198.017 7.26367C197.836 7.40319 197.746 7.59752 197.746 7.84666C197.746 8.04099 197.791 8.19795 197.881 8.31754C197.977 8.43713 198.102 8.53678 198.258 8.61651C198.413 8.69623 198.581 8.76848 198.762 8.83326C198.947 8.89306 199.133 8.96032 199.319 9.03507C199.504 9.10981 199.672 9.20448 199.823 9.31909C199.978 9.43369 200.104 9.58069 200.199 9.76007C200.294 9.93447 200.342 10.1587 200.342 10.4328C200.342 10.8762 200.189 11.2225 199.883 11.4717C199.582 11.7158 199.171 11.8379 198.649 11.8379Z" fill="black"/>
<path d="M191.416 11.7658V6.62354H191.965V11.7658H191.416ZM191.777 11.7658V11.265H194.824V11.7658H191.777ZM191.777 9.37406V8.88823H194.583V9.37406H191.777ZM191.777 7.12431V6.62354H194.779V7.12431H191.777Z" fill="black"/>
<line x1="186.991" y1="9.33598" x2="29.9192" y2="9.33598" stroke="black" stroke-width="0.627035"/>
</svg>
