<svg width="17" height="17" viewBox="0 0 17 17" fill="none" xmlns="http://www.w3.org/2000/svg">
<g clip-path="url(#clip0_71_212)">
<path d="M8.50007 0.857178C5.24097 0.857178 2.5896 3.50855 2.5896 6.76765C2.5896 7.84058 3.07078 8.99451 3.09095 9.04318C3.24636 9.41207 3.55301 9.98503 3.77413 10.3209L7.82663 16.4612C7.99247 16.7129 8.23793 16.8572 8.50007 16.8572C8.76222 16.8572 9.00768 16.7129 9.17352 16.4615L13.2264 10.3209C13.4478 9.98503 13.7541 9.41207 13.9095 9.04318C13.9297 8.99486 14.4105 7.84092 14.4105 6.76765C14.4105 3.50855 11.7592 0.857178 8.50007 0.857178ZM13.2684 8.77339C13.1297 9.10403 12.8443 9.63701 12.6457 9.9381L8.5929 16.0787C8.51294 16.2001 8.48756 16.2001 8.40759 16.0787L4.35474 9.9381C4.15622 9.63701 3.87078 9.10368 3.73206 8.77304C3.72615 8.75879 3.28495 7.69664 3.28495 6.76765C3.28495 3.89203 5.62445 1.55253 8.50007 1.55253C11.3757 1.55253 13.7152 3.89203 13.7152 6.76765C13.7152 7.69803 13.273 8.76296 13.2684 8.77339Z" fill="#19161D"/>
<path d="M8.50017 3.63892C6.77466 3.63892 5.37109 5.04283 5.37109 6.76799C5.37109 8.49315 6.77466 9.89706 8.50017 9.89706C10.2257 9.89706 11.6292 8.49315 11.6292 6.76799C11.6292 5.04283 10.2257 3.63892 8.50017 3.63892ZM8.50017 9.20171C7.15849 9.20171 6.06644 8.11002 6.06644 6.76799C6.06644 5.42596 7.15849 4.33427 8.50017 4.33427C9.84185 4.33427 10.9339 5.42596 10.9339 6.76799C10.9339 8.11002 9.84185 9.20171 8.50017 9.20171Z" fill="#19161D"/>
</g>
<defs>
<clipPath id="clip0_71_212">
<rect width="16" height="16" fill="white" transform="translate(0.5 0.857178)"/>
</clipPath>
</defs>
</svg>
