<svg width="17" height="17" viewBox="0 0 17 17" fill="none" xmlns="http://www.w3.org/2000/svg">
<g clip-path="url(#clip0_71_168)">
<path d="M3.76036 11.4929C5.33848 13.3793 7.23818 14.8646 9.40644 15.9156C10.232 16.3068 11.336 16.771 12.566 16.8505C12.6422 16.8539 12.7152 16.8572 12.7914 16.8572C13.617 16.8572 14.28 16.5721 14.8204 15.9852C14.8238 15.9819 14.8304 15.9753 14.8337 15.9687C15.026 15.7366 15.2448 15.5277 15.4736 15.3056C15.6294 15.1564 15.7885 15.0006 15.941 14.8414C16.6472 14.1054 16.6472 13.1705 15.9344 12.4577L13.9419 10.4651C13.6037 10.1137 13.1992 9.92804 12.7749 9.92804C12.3505 9.92804 11.9427 10.1137 11.5946 10.4618L10.4077 11.6487C10.2983 11.5857 10.1856 11.5294 10.0795 11.4763C9.94685 11.41 9.82418 11.347 9.71477 11.2774C8.63396 10.5911 7.65261 9.69597 6.71436 8.54553C6.24026 7.94545 5.92198 7.44151 5.69985 6.92763C6.0115 6.64582 6.30325 6.35075 6.58506 6.06232C6.68452 5.95954 6.78729 5.85676 6.89007 5.75399C7.24813 5.39593 7.44042 4.9815 7.44042 4.56045C7.44042 4.1394 7.25145 3.72498 6.89007 3.36692L5.90209 2.37893C5.78605 2.2629 5.67664 2.15017 5.56392 2.03414C5.34511 1.80869 5.11635 1.57661 4.8909 1.36775C4.54942 1.03289 4.14826 0.857178 3.72389 0.857178C3.30284 0.857178 2.89836 1.03289 2.54361 1.37106L1.30366 2.61101C0.852773 3.0619 0.597489 3.60894 0.544443 4.24218C0.481451 5.03455 0.627327 5.87666 1.00528 6.89448C1.58547 8.46928 2.46073 9.93136 3.76036 11.4929ZM1.35339 4.3118C1.39318 3.87085 1.56226 3.50285 1.88054 3.18457L3.11386 1.95125C3.30615 1.76559 3.51833 1.66944 3.72389 1.66944C3.92613 1.66944 4.13168 1.76559 4.32066 1.95788C4.54279 2.16344 4.75165 2.37893 4.9771 2.6077C5.08982 2.72373 5.20586 2.83977 5.3219 2.95913L6.30988 3.94711C6.51543 4.15266 6.62153 4.36153 6.62153 4.56708C6.62153 4.77264 6.51543 4.9815 6.30988 5.18706C6.2071 5.28983 6.10433 5.39593 6.00155 5.4987C5.69322 5.81035 5.40478 6.10542 5.08651 6.38722C5.07988 6.39385 5.07656 6.39717 5.06993 6.4038C4.79475 6.67898 4.83785 6.94089 4.90416 7.13981C4.90748 7.14976 4.91079 7.15639 4.91411 7.16634C5.16939 7.77968 5.52414 8.36319 6.0778 9.05942C7.07242 10.2861 8.12007 11.2376 9.27383 11.9703C9.41639 12.0631 9.56889 12.1361 9.71145 12.209C9.84407 12.2753 9.96674 12.3383 10.0761 12.4079C10.0894 12.4146 10.0994 12.4212 10.1126 12.4278C10.222 12.4842 10.3281 12.5107 10.4342 12.5107C10.6994 12.5107 10.8718 12.3416 10.9282 12.2853L12.1681 11.0453C12.3604 10.853 12.5693 10.7503 12.7749 10.7503C13.0268 10.7503 13.2324 10.9061 13.3617 11.0453L15.3609 13.0412C15.7587 13.439 15.7554 13.87 15.3509 14.2911C15.2117 14.4403 15.0658 14.5828 14.91 14.732C14.6779 14.9575 14.4359 15.1895 14.217 15.4515C13.8358 15.8626 13.3816 16.0549 12.7948 16.0549C12.7384 16.0549 12.6787 16.0515 12.6224 16.0482C11.5349 15.9786 10.5237 15.5542 9.7645 15.1929C7.70234 14.1949 5.89214 12.7793 4.39028 10.9823C3.15364 9.49373 2.32148 8.1079 1.77113 6.62261C1.42965 5.71089 1.30035 4.97819 1.35339 4.3118Z" fill="#19161D"/>
</g>
<defs>
<clipPath id="clip0_71_168">
<rect width="16" height="16" fill="white" transform="translate(0.5 0.857178)"/>
</clipPath>
</defs>
</svg>
